<svg xmlns="http://www.w3.org/2000/svg" width="5000" height="5000" viewBox="0 0 5000 5000">
  <defs>
    <style>
      .cls-1 {
        fill: #92d945;
        fill-rule: evenodd;
      }
    </style>
  </defs>
  <path id="ARROW" class="cls-1" d="M1599.08,238.386L3559.74,2379.87c73.6,80.39,68.1,205.23-12.29,278.84l-25.2,23.06c-97.49,79.71-204.44,62.42-278.84-12.29L1282.76,528c-73.6-80.393-68.1-205.233,12.29-278.838l25.2-23.066C1400.64,152.49,1525.48,157.993,1599.08,238.386ZM3559,2647L1588.89,4760.32c-74.22,79.83-199.1,84.37-278.92,10.15l-25.02-23.26c-79.82-74.23-84.36-199.11-10.14-278.93L3098,2510l146,160S3388.53,2828.2,3559,2647Z"/>
</svg>
