<svg id="LIKE" xmlns="http://www.w3.org/2000/svg" width="5000" height="5000" viewBox="0 0 5000 5000">
  <defs>
    <style>
      .cls-1 {
        fill: #92d945;
      }

      .cls-2 {
        fill: #fff;
        fill-rule: evenodd;
      }
    </style>
  </defs>
  <circle class="cls-1" cx="2500" cy="2500" r="2466.5"/>
  <path id="Color_Fill_2" data-name="Color Fill 2" class="cls-2" d="M1055.13,2063.51s-206.474-10.41-240.638,244.46S776.7,3271.94,854.6,3620.05c0,0,32.622,219.65,280.751,252.1s356.71,30.02,450.73-97.41,89.32-138.1,91.67-275.02-52-492.21-24.83-1012.22c0,0,41.99-312.61-103.13-372.42S1309.38,2048.38,1055.13,2063.51Zm1356-618.79s-144.49,261.02-255.92,416.34-256.78,412.67-261.65,744.85,23.35,936.67,66.85,1033.23,128.48,254.68,487.01,273.11,1216.93,9.27,1390.38-238.73c0,0,72.38-77.68,63.02-181.44,0,0-19.59-36.55,40.11-103.13s115.81-203.49,124.14-406.8c0,0,2.02-65.9,32.47-105.04s122.92-196.36,15.28-425.9c0,0-40.18-37.4,0-105.04s94.82-472.92-389.61-496.56-804.41,76.9-746.76-85.95,199.34-452.88,74.49-771.581-674.26-379.366-647.45-42.017S2456.62,1381.04,2411.13,1444.72Z"/>
</svg>
